<svg xmlns="http://www.w3.org/2000/svg" style="display: none;"><symbol id="path" viewBox="0 0 300 300"><title>path</title><path d="m262 30h-224c-4.418 0-8 3.582-8 8v224c0 4.418 3.582 8 8 8h224c4.418 0 8-3.582 8-8v-224c0-4.418-3.582-8-8-8zm-216 16h104v16h-80c-4.418 0-8 3.582-8 8v56h-16zm0 96h16v88c0 4.418 3.582 8 8 8h56v16h-80zm144 112h-48v-16h48zm64 0h-48v-16h24c4.418 0 8-3.582 8-8v-16c0-4.418-3.582-8-8-8s-8 3.582-8 8v8h-16v-24c0-4.418-3.582-8-8-8s-8 3.582-8 8v24h-48v-80h16v32c0 4.418 3.582 8 8 8h52.686l-2.343 2.343c-3.125 3.125-3.125 8.189 0 11.314 1.562 1.562 3.609 2.343 5.657 2.343s4.095-.781 5.657-2.343l16-16c3.125-3.125 3.125-8.189 0-11.314l-16-16c-3.124-3.123-8.189-3.123-11.313 0-3.125 3.125-3.125 8.189 0 11.314l2.343 2.343h-44.687v-32c0-4.418-3.582-8-8-8h-32c-4.418 0-8 3.582-8 8v88h-48v-80h16v56c0 4.418 3.582 8 8 8s8-3.582 8-8v-88h80v32c0 4.418 3.582 8 8 8s8-3.582 8-8v-40c0-4.418-3.582-8-8-8h-96c-4.418 0-8 3.582-8 8v24h-16v-48h144v56c0 4.418 3.582 8 8 8s8-3.582 8-8v-64c0-4.418-3.582-8-8-8h-64v-16h88z"/></symbol><symbol id="start" viewBox="0 0 512 512"><title>start</title><g> <g> <path d="M206.453,115.399c-16.027-0.663-32.252-1.664-48.223-2.972c-4.186-0.34-7.856,2.772-8.199,6.958 c-0.343,4.185,2.772,7.856,6.958,8.199c5.73,0.469,11.496,0.885,17.27,1.274v58.632c0.001,4.199,3.406,7.604,7.605,7.604 s7.604-3.405,7.604-7.604v-57.699c5.463,0.3,10.922,0.578,16.358,0.803c0.106,0.004,0.213,0.006,0.319,0.006 c4.054,0,7.422-3.201,7.592-7.29C213.91,119.116,210.649,115.573,206.453,115.399z"/> </g> </g><g> <g> <path d="M425.326,112.101c-0.564-4.162-4.397-7.082-8.556-6.515c-15.905,2.154-32.073,4.013-48.055,5.522 c-4.18,0.395-7.249,4.105-6.855,8.285c0.372,3.938,3.684,6.889,7.561,6.889c0.239,0,0.482-0.011,0.725-0.034 c5.279-0.499,10.579-1.048,15.881-1.621v57.261c-0.001,4.2,3.403,7.605,7.603,7.605s7.604-3.405,7.604-7.604v-59 c5.877-0.709,11.747-1.444,17.576-2.234C422.972,120.092,425.889,116.262,425.326,112.101z"/> </g> </g><g> <g> <path d="M344.334,140.402v-2.251c0-6.557-2.568-12.603-7.231-17.026c-4.711-4.469-10.956-6.747-17.626-6.383 c-6.317,0.335-12.708,0.622-18.992,0.857c-4.087,0.151-7.322,3.509-7.322,7.599v35.91v29.834c0,4.199,3.404,7.604,7.604,7.604 s7.604-3.405,7.604-7.604v-22.499c5.57,0.049,10.703,2.073,14.558,5.771c3.995,3.831,6.196,9.107,6.196,14.853 c0,4.199,3.404,7.604,7.604,7.604s7.604-3.405,7.604-7.604c0-9.929-3.864-19.102-10.878-25.829 c-0.011-0.011-0.024-0.021-0.036-0.032C339.985,156.537,344.334,148.857,344.334,140.402z M329.126,140.403 c0,5.279-4.417,9.972-9.648,10.248h-0.001c-3.676,0.195-7.39,0.375-11.106,0.537v-20.687c3.969-0.171,7.955-0.363,11.911-0.573 c2.43-0.134,4.702,0.662,6.356,2.232c1.604,1.522,2.488,3.65,2.488,5.992V140.403z"/> </g> </g><g> <g> <path d="M249.397,116.406c-6.787-0.008-13.105,2.548-17.856,7.273c-4.699,4.674-7.287,10.911-7.287,17.563v48.287 c0,4.199,3.405,7.604,7.604,7.604c4.199,0,7.604-3.405,7.604-7.604v-22.704c5.519,0.075,11.051,0.127,16.576,0.127 c1.075,0,2.141-0.011,3.215-0.014v22.786c0,4.199,3.404,7.604,7.604,7.604s7.604-3.405,7.604-7.604v-48.287 C274.46,127.713,263.218,116.485,249.397,116.406z M259.253,151.737c-6.587,0.017-13.201-0.019-19.791-0.11v-10.384 c0-2.575,0.996-4.983,2.804-6.782c1.86-1.85,4.347-2.823,7.047-2.847c5.48,0.031,9.939,4.437,9.939,9.822V151.737z"/> </g> </g><g> <g> <path d="M113.527,140.794l-2.024-0.243c-5.161-0.627-9.688-5.763-9.688-10.992c-0.001-2.169,0.744-3.974,2.154-5.223 c1.442-1.277,3.466-1.833,5.699-1.561c6.141,0.746,12.381,1.456,18.551,2.11c4.179,0.441,7.92-2.584,8.362-6.761 c0.442-4.176-2.585-7.92-6.761-8.362c-6.091-0.645-12.254-1.345-18.318-2.083c-6.619-0.804-12.873,1.072-17.618,5.276 c-4.693,4.159-7.277,10.055-7.277,16.605c0,13.061,10.132,24.52,23.065,26.089l2.043,0.246c5.259,0.632,9.702,5.549,9.702,10.737 c0,2.206-0.808,4.139-2.276,5.44c-1.453,1.289-3.446,1.856-5.614,1.595c-6.073-0.728-12.229-1.514-18.295-2.335 c-4.165-0.563-7.992,2.354-8.555,6.515c-0.564,4.162,2.353,7.992,6.515,8.555c6.143,0.831,12.376,1.627,18.524,2.364 c0.971,0.117,1.934,0.174,2.887,0.174c5.471,0,10.584-1.902,14.631-5.492c4.697-4.167,7.392-10.297,7.392-16.817 C136.626,153.699,126.48,142.35,113.527,140.794z"/> </g> </g><g> <g> <path d="M509.379,52.256c-1.665-1.445-3.875-2.098-6.055-1.785C362.914,70.454,220.173,73.339,79.069,59.042 c-4.176-0.427-7.908,2.621-8.332,6.799c-0.424,4.178,2.621,7.908,6.799,8.332C216.962,88.3,357.959,85.797,496.792,66.74v146.232 c-159.823,22.136-321.76,22.136-481.584,0V66.74c11.705,1.606,23.504,3.105,35.186,4.472c4.181,0.494,7.949-2.498,8.435-6.669 c0.488-4.171-2.498-7.948-6.669-8.435c-14.449-1.689-29.08-3.585-43.485-5.636c-2.186-0.311-4.391,0.341-6.055,1.785 C0.956,53.7,0,55.796,0,57.999v161.584c0,3.786,2.785,6.995,6.532,7.528c5.587,0.795,11.177,1.558,16.769,2.299v224.592 c0,4.199,3.405,7.604,7.604,7.604h30.436c4.199,0,7.604-3.405,7.604-7.604V234.866c62.188,6.609,124.621,9.915,187.054,9.915 c62.433,0,124.864-3.305,187.05-9.915v67.591c0,4.199,3.404,7.604,7.604,7.604s7.604-3.405,7.604-7.604v-69.275 c5.078-0.584,10.154-1.191,15.229-1.82v215.036h-15.229V327.804c0-4.199-3.404-7.604-7.604-7.604s-7.604,3.405-7.604,7.604 v126.198c0,4.199,3.404,7.604,7.604,7.604h30.437c4.2,0,7.604-3.405,7.604-7.604V229.412c5.593-0.741,11.184-1.505,16.772-2.3 c3.747-0.533,6.532-3.742,6.532-7.528V57.999C512,55.796,511.044,53.7,509.379,52.256z M53.738,446.398H38.51V231.361 c5.074,0.629,10.15,1.236,15.228,1.82V446.398z"/> </g> </g></symbol><symbol id="finish-line" viewBox="0 0 512.001 512.001"><title>finish-line</title><g> <g> <path d="M120.975,85.643H79.297c-2.731,0-5.581,1.424-5.581,4.156v78.486c0,2.85,3.206,4.156,6.293,4.156 c3.206,0,6.293-1.306,6.293-4.156V133.97h18.405c2.85,0,4.037-2.612,4.037-4.868c0-2.731-1.425-5.106-4.037-5.106H86.302V96.805 h34.673c2.612,0,4.037-2.612,4.037-5.7C125.012,88.493,123.825,85.643,120.975,85.643z"/> </g> </g><g> <g> <path d="M150.066,85.644c-3.087,0-6.293,1.187-6.293,4.037v78.605c0,2.732,3.206,4.156,6.293,4.156 c3.206,0,6.293-1.424,6.293-4.156V89.681C156.359,86.831,153.272,85.644,150.066,85.644z"/> </g> </g><g> <g> <path d="M230.927,85.644c-3.087,0-6.293,1.187-6.293,4.037v54.502l-26.36-51.415c-2.85-5.462-4.987-7.124-9.499-7.124 c-3.206,0-6.293,1.187-6.293,4.156v78.486c0,2.732,3.206,4.156,6.293,4.156c3.205,0,6.292-1.424,6.292-4.156v-54.501 l28.379,54.027c1.663,3.087,4.393,4.63,7.481,4.63c3.206,0,6.293-1.424,6.293-4.156V89.681 C237.22,86.831,234.133,85.644,230.927,85.644z"/> </g> </g><g> <g> <path d="M269.634,85.644c-3.087,0-6.293,1.187-6.293,4.037v78.605c0,2.732,3.206,4.156,6.293,4.156 c3.206,0,6.293-1.424,6.293-4.156V89.681C275.927,86.831,272.84,85.644,269.634,85.644z"/> </g> </g><g> <g> <path d="M312.379,106.897c0-7.48,6.174-10.805,14.843-10.805c10.093,0,13.18,4.512,16.386,4.512c3.562,0,5.225-4.393,5.225-6.768 c0-6.531-13.893-8.55-21.611-8.55c-12.705,0-27.429,5.225-27.429,22.798c0,28.498,38.59,20.304,38.59,41.322 c0,8.55-6.412,12.587-14.961,12.587c-13.18,0-16.03-9.38-20.305-9.38c-2.968,0-5.462,3.918-5.462,6.768 c0,5.937,10.805,14.011,26.242,14.011c15.673,0,27.072-8.313,27.072-25.292C350.969,116.515,312.379,124.471,312.379,106.897z"/> </g> </g><g> <g> <path d="M421.738,85.644c-3.087,0-6.293,1.187-6.293,4.037v32.772h-29.566V89.681c0-2.85-3.087-4.037-6.293-4.037 c-3.087,0-6.293,1.187-6.293,4.037v78.605c0,2.732,3.206,4.156,6.293,4.156c3.206,0,6.293-1.424,6.293-4.156v-35.859h29.566 v35.859c0,2.732,3.206,4.156,6.293,4.156c3.206,0,6.293-1.424,6.293-4.156V89.681C428.031,86.831,424.944,85.644,421.738,85.644z"/> </g> </g><g> <g> <path d="M395.703,194.718l-372.28-0.001V63.122h58.21c4.139,0,7.493-3.354,7.493-7.493c0-4.139-3.354-7.493-7.493-7.493h-63.04 c-5.6,0-10.157,4.556-10.157,10.157v362.462C3.657,421.56,0,425.717,0,430.722v23.023c0,5.58,4.54,10.118,10.119,10.118h39.007 c5.58,0,10.119-4.539,10.119-10.118v-23.023c0-5.006-3.657-9.162-8.437-9.967V209.704h344.895c4.139,0,7.493-3.354,7.493-7.493 C403.196,198.073,399.842,194.718,395.703,194.718z M23.423,209.704h12.399v210.9H23.423V209.704z M44.259,448.878H14.986V435.59 h29.273C44.259,435.59,44.259,448.878,44.259,448.878z"/> </g> </g><g> <g> <path d="M503.563,420.756V203.885c0.123-0.539,0.194-1.097,0.194-1.673V58.293c0-5.601-4.556-10.157-10.157-10.157H116.498 c-4.139,0-7.493,3.354-7.493,7.493c0,4.139,3.354,7.493,7.493,7.493h372.273v131.596l-58.203,0.001 c-4.139,0-7.493,3.354-7.493,7.493s3.354,7.493,7.493,7.493h30.625v211.051c-4.78,0.805-8.437,4.961-8.437,9.967v23.023 c0,5.58,4.54,10.118,10.119,10.118h39.007c5.58,0,10.119-4.539,10.119-10.118v-23.023C512,425.717,508.343,421.56,503.563,420.756 z M476.178,209.704h12.399v210.9h-12.399V209.704z M497.014,448.878h-29.273V435.59h29.273V448.878z"/> </g> </g></symbol><symbol id="finish-flag" viewBox="0 0 496 496"><title>finish-flag</title><path d="M428,24H100V8c0-4.418-3.582-8-8-8H68c-4.418,0-8,3.582-8,8v480c0,4.418,3.582,8,8,8h24c4.418,0,8-3.582,8-8V296h328 c4.418,0,8-3.582,8-8V32C436,27.582,432.418,24,428,24z M84,480h-8V16h8V480z M420,120h-80v80h80v80h-80v-80h-80v80h-80v-80h-80 v-80h80V40h80v80h80V40h80V120z"/><rect x="180" y="120" width="80" height="80"/></symbol><symbol id="cup" viewBox="0 0 512 512"><title>cup</title><path d="m352.409 260c-4.424 0-8.622-1.953-11.473-5.336-2.85-3.384-4.061-7.853-3.31-12.212l29.305-170c1.241-7.195 7.482-12.452 14.783-12.452h84.286c8.284 0 15 6.716 15 15v56.409c0 70.905-57.686 128.591-128.591 128.591zm41.941-170-23.848 138.336c45.753-8.52 80.498-48.742 80.498-96.927v-41.409z" fill="#f7aa00"/><path d="m159.591 260c-70.905 0-128.591-57.686-128.591-128.591v-56.409c0-8.284 6.716-15 15-15h84.286c7.301 0 13.542 5.257 14.782 12.452l29.305 170c.751 4.36-.46 8.829-3.31 12.212s-7.048 5.336-11.472 5.336zm-98.591-170v41.409c0 48.185 34.745 88.407 80.498 96.927l-23.848-138.336z" fill="#ffd228"/><path d="m316 392h-120c-6.067 0-11.537-3.655-13.858-9.26s-1.038-12.057 3.252-16.347c16.512-16.512 25.606-38.467 25.606-61.819v-13.542c0-8.284 6.716-15 15-15h60c8.284 0 15 6.716 15 15v13.542c0 23.353 9.094 45.307 25.606 61.819 4.29 4.29 5.573 10.742 3.252 16.347-2.322 5.605-7.791 9.26-13.858 9.26z" fill="#ffd228"/><path d="m301 304.574v-13.542c0-8.284-6.716-15-15-15h-30v115.968h60c6.067 0 11.536-3.655 13.858-9.26 2.321-5.605 1.038-12.057-3.252-16.347-16.512-16.512-25.606-38.466-25.606-61.819z" fill="#f7aa00"/><path d="m256 310c-33.782 0-66.003-12.678-90.727-35.699s-39.666-54.256-42.073-87.952l-12.163-170.28c-.297-4.153 1.146-8.243 3.984-11.291s6.815-4.778 10.979-4.778h260c4.164 0 8.141 1.731 10.978 4.778 2.838 3.047 4.281 7.137 3.984 11.291l-12.163 170.28c-2.407 33.696-17.349 64.932-42.072 87.952-24.724 23.021-56.945 35.699-90.727 35.699z" fill="#ffeb3c"/><path d="m346.727 274.301c24.724-23.021 39.665-54.256 42.072-87.952l12.163-170.28c.297-4.153-1.146-8.243-3.984-11.291-2.837-3.047-6.814-4.778-10.978-4.778h-130v310c33.782 0 66.003-12.678 90.727-35.699z" fill="#ffd228"/><path d="m356 452h-200c-8.284 0-15-6.716-15-15v-30c0-24.813 20.187-45 45-45h140c24.813 0 45 20.187 45 45v30c0 8.284-6.716 15-15 15z" fill="#ffeb3c"/><path d="m326 362h-70v90h100c8.284 0 15-6.716 15-15v-30c0-24.813-20.187-45-45-45z" fill="#ffd228"/><path d="m396 512h-280c-8.284 0-15-6.716-15-15v-30c0-24.813 20.187-45 45-45h220c24.813 0 45 20.187 45 45v30c0 8.284-6.716 15-15 15z" fill="#ffd228"/><path d="m411 497v-30c0-24.813-20.187-45-45-45h-110v90h140c8.284 0 15-6.716 15-15z" fill="#f7aa00"/><path d="m426 512h-340c-8.284 0-15-6.716-15-15s6.716-15 15-15h340c8.284 0 15 6.716 15 15s-6.716 15-15 15z" fill="#ffeb3c"/><path d="m441 497c0-8.284-6.716-15-15-15h-170v30h170c8.284 0 15-6.716 15-15z" fill="#ffd228"/><path d="m406 30h-300c-8.284 0-15-6.716-15-15s6.716-15 15-15h300c8.284 0 15 6.716 15 15s-6.716 15-15 15z" fill="#ffd228"/><path d="m406 30c8.284 0 15-6.716 15-15s-6.716-15-15-15h-150v30z" fill="#f7aa00"/><path d="m259.894 235c-8.284 0-15-6.716-15-15v-115h-12.787c-8.284 0-15-6.716-15-15s6.716-15 15-15h27.787c8.284 0 15 6.716 15 15v130c0 8.284-6.716 15-15 15z" fill="#ffd228"/><path d="m259.894 75h-3.894v159.471c1.244.334 2.544.529 3.894.529 8.284 0 15-6.716 15-15v-130c0-8.284-6.716-15-15-15z" fill="#f7aa00"/></symbol><symbol id="stopwatch" viewBox="0 0 62 62"><title>stopwatch</title><g fill="#fff"><path d="m44.304 16.376 4.531-4.647 4.578 4.697-4.482 4.548"/><path d="m12.147 20.841-4.554-4.415 4.578-4.697 4.531 4.647"/><ellipse cx="30.52" cy="35.905" rx="23.52" ry="24.127"/></g><ellipse cx="32.48" cy="37.873" fill="#4cbbe9" rx="23.52" ry="24.127"/><path d="m35.393 31.97 12.724 6.872c-2.651 5.142-7.904 8.257-13.447 8.059-5.976-.247-11.326-4.252-13.206-9.987-2.362-7.218 1.59-14.437 6.603-17.65 2.747-1.73 5.543-2.126 7.23-2.175z" fill="#6dc9f7"/><path d="m31.473 35.905 12.724 6.872c-2.651 5.142-7.904 8.257-13.447 8.059-5.976-.247-11.326-4.252-13.206-9.987-2.362-7.218 1.59-14.437 6.603-17.65 2.747-1.73 5.543-2.126 7.23-2.175z" fill="#fff"/><path d="m35.99 5.45h-10.94c-.675 0-1.253-.544-1.253-1.285v-1.88c0-.692.53-1.285 1.253-1.285h10.94c.675 0 1.253.544 1.253 1.285v1.928c-.048.693-.578 1.237-1.253 1.237z" fill="#ffa35f"/><path d="m50.272 21.038 3.854-3.91c.382-.388.384-1.011.004-1.4l-4.579-4.697c-.384-.392-1.048-.395-1.432 0l-3.926 4.027c-2.768-1.913-5.938-3.255-9.347-3.88v-4.729h1.145c1.197 0 2.165-.931 2.253-2.235v-1.929c0-1.26-1.011-2.285-2.254-2.285h-10.94c-1.243 0-2.253 1.025-2.253 2.285v1.879c0 1.26 1.011 2.285 2.253 2.285h1.096v4.737c-3.399.63-6.56 1.974-9.319 3.884l-3.939-4.041c-.377-.385-1.056-.387-1.432 0l-4.579 4.697c-.378.388-.37 1.039.02 1.416l3.931 3.81c-3.032 4.183-4.828 9.356-4.828 14.953 0 3.389.647 6.676 1.924 9.772.209.51.792.751 1.306.544.51-.211.754-.795.543-1.306-1.05-2.547-1.61-5.24-1.724-8.011h3c.552 0 1-.447 1-1s-.448-1-1-1h-3.024c.497-11.932 9.837-21.55 21.447-22.1v2.334c0 .553.448 1 1 1s1-.447 1-1v-2.337c11.654.501 21.045 10.137 21.544 22.102h-2.976c-.552 0-1 .447-1 1s.448 1 1 1h2.976c-.498 11.949-9.864 21.576-21.495 22.101v-2.929c0-.553-.448-1-1-1s-1 .447-1 1v2.924c-6.823-.315-13.213-3.825-17.246-9.537-.318-.45-.942-.558-1.394-.24-.451.319-.559.943-.24 1.395 4.604 6.521 12.035 10.414 19.879 10.414 13.521 0 24.52-11.271 24.52-25.127 0-5.558-1.774-10.699-4.768-14.866zm-25.476-16.874v-1.879c0-.139.089-.285.254-.285h10.94c.126 0 .253.098.253.285l.002 1.859c-.011.151-.102.305-.256.305h-10.939c-.126 0-.254-.097-.254-.285zm-12.722 15.214-3.066-2.972 3.163-3.244 3.05 3.129c-1.136.932-2.189 1.965-3.147 3.087zm18.446-8.6c-.801 0-1.592.042-2.374.12v-4.449h4.7v4.445c-.766-.074-1.541-.116-2.326-.116zm15.28 5.497 3.035-3.113 3.178 3.261-2.986 3.029c-.979-1.157-2.059-2.221-3.227-3.177z" fill="#303053"/></symbol><symbol id="footstep" viewBox="0 0 512 512"><title>footstep</title><path style="fill:#1D4859;" d="M80.839,289.72c-1.519,0.457-3.148-0.226-3.88-1.633C65.941,266.896-11.255,111.662,49.269,32.97 c57.487-74.744,136.849-11.933,143.699,83.921c4.208,58.886-2.374,125.316-3.74,138.074c-0.141,1.321-1.059,2.428-2.331,2.811 L80.839,289.72z"/><path style="fill:#183D4C;" d="M192.968,116.891C186.704,29.238,119.808-30.76,64.449,16.763 c43.588-1.358,84.077,49.616,88.883,116.857c3.963,55.458-1.643,117.598-3.451,135.304l37.016-11.149 c1.272-0.383,2.19-1.49,2.331-2.811C190.594,242.206,197.177,175.777,192.968,116.891z"/><path style="fill:#1D4859;" d="M185.785,435.384L185.785,435.384c-30.464,9.761-63.073-7.023-72.833-37.487l-19.499-60.86 c-0.556-1.737,0.4-3.596,2.137-4.152l104.031-33.331c1.737-0.556,3.596,0.4,4.152,2.137l19.499,60.86 C233.033,393.015,216.249,425.623,185.785,435.384z"/><path style="fill:#183D4C;" d="M223.272,362.551l-19.499-60.86c-0.556-1.737-2.416-2.694-4.152-2.137l-35.836,11.482l16.505,51.515 c9.346,29.17-5.654,60.291-33.689,71.453c12.071,4.836,25.833,5.658,39.184,1.38l0,0 C216.249,425.623,233.033,393.015,223.272,362.551z"/><path style="fill:#2D5872;" d="M215.116,337.093l-1.439,1.149l-22.293-1.277c-1.703-0.098-3.383,0.437-4.716,1.501l-15.381,12.277 c-1.334,1.064-3.013,1.599-4.717,1.501l-19.644-1.126c-1.704-0.098-3.383,0.437-4.717,1.502l-15.377,12.275 c-1.334,1.065-3.013,1.599-4.717,1.502l-19.614-1.125l10.453,32.624c0.843,2.632,1.868,5.154,3.036,7.573l18.91,1.085 c1.704,0.098,3.384-0.437,4.717-1.502l15.377-12.275c1.334-1.065,3.013-1.599,4.717-1.502l19.644,1.126 c1.704,0.098,3.383-0.437,4.717-1.501l15.381-12.277c1.333-1.064,3.013-1.599,4.716-1.501l21.835,1.25 c-0.17-5.253-1.046-10.569-2.73-15.822L215.116,337.093z"/><path style="fill:#1D4859;" d="M225.551,372.816c-0.03-0.233-0.061-0.466-0.094-0.7c-0.071-0.502-0.146-1.004-0.23-1.505 c-0.107-0.631-0.223-1.262-0.352-1.893c-0.072-0.357-0.153-0.713-0.232-1.07c-0.133-0.596-0.274-1.193-0.427-1.788 c-0.069-0.268-0.138-0.536-0.211-0.804c-0.228-0.836-0.466-1.672-0.733-2.505l-8.157-25.458l-1.439,1.149l-22.293-1.277 c-1.703-0.098-3.383,0.437-4.716,1.502l-11.223,8.958l4.846,15.126c3.175,9.91,3.533,20.043,1.532,29.544 c0.81-0.254,1.574-0.656,2.248-1.194l15.381-12.276c1.333-1.064,3.013-1.599,4.716-1.501l21.835,1.25 C225.942,376.526,225.79,374.672,225.551,372.816z"/><g> <path style="fill:#2D5872;" d="M161.857,179.884l-22.075-1.264c-0.922-0.053-1.831,0.237-2.553,0.813l-17.281,13.793 c-0.722,0.576-1.631,0.865-2.553,0.813l-22.072-1.265c-0.922-0.053-1.831,0.237-2.553,0.813l-17.278,13.792 c-0.722,0.576-1.631,0.866-2.553,0.813l-22.069-1.266c-0.922-0.053-1.831,0.237-2.553,0.813l-3.668,2.927 c5.769,17.581,12.09,33.488,17.677,46.394l1.349-1.077c0.722-0.576,1.631-0.866,2.553-0.813l22.069,1.266 c0.922,0.053,1.831-0.237,2.553-0.813l17.278-13.792c0.722-0.576,1.631-0.866,2.553-0.813l22.072,1.265 c0.922,0.053,1.831-0.237,2.553-0.813l17.281-13.793c0.722-0.576,1.631-0.865,2.553-0.813l22.075,1.264 c0.922,0.053,1.831-0.237,2.553-0.813l12.615-10.069c0.967-15.035,1.801-33.141,1.948-52.204l-10.088-0.577 c-0.922-0.053-1.831,0.237-2.552,0.813l-17.281,13.793C163.687,179.647,162.779,179.937,161.857,179.884z"/> <path style="fill:#2D5872;" d="M150.963,68.796l-17.262,13.778c-0.728,0.581-1.644,0.873-2.574,0.82l-22.051-1.263 c-0.93-0.053-1.846,0.239-2.574,0.82L89.239,96.729c-0.728,0.581-1.645,0.873-2.574,0.819l-22.048-1.263 c-0.93-0.053-1.847,0.239-2.574,0.82l-17.259,13.777c-0.728,0.581-1.645,0.873-2.575,0.82l-15.864-0.91 c-0.038,16.441,1.932,33.341,5.125,49.89l1.897-1.514c0.458-0.366,1.036-0.55,1.622-0.516l22.579,1.295 c0.93,0.053,1.847-0.239,2.575-0.82l17.259-13.777c0.728-0.581,1.645-0.873,2.574-0.82l22.048,1.263 c0.93,0.053,1.846-0.239,2.574-0.82l17.262-13.778c0.728-0.581,1.644-0.873,2.574-0.82l22.051,1.263 c0.93,0.053,1.846-0.239,2.574-0.82l17.262-13.778c0.728-0.581,1.644-0.873,2.574-0.82l23.496,1.345l0.59-0.471 c-0.005-0.068-0.009-0.137-0.014-0.205c-1.325-18.543-5.374-35.841-11.443-51.154l-4.492,3.585l-23.496-1.345 C152.608,67.924,151.691,68.215,150.963,68.796z"/> </g><g> <path style="fill:#1D4859;" d="M194.331,165.042l-10.088-0.577c-0.922-0.053-1.831,0.237-2.553,0.813l-17.281,13.793 c-0.722,0.576-1.631,0.865-2.553,0.813l-7.148-0.409c-0.082,17.152-0.733,33.602-1.555,47.83c0.605-0.325,1.292-0.48,1.986-0.44 l22.075,1.264c0.922,0.053,1.831-0.237,2.553-0.813l12.615-10.069C193.35,202.212,194.183,184.106,194.331,165.042z"/> <path style="fill:#1D4859;" d="M192.982,117.096c0-0.003,0-0.007-0.001-0.01c-0.005-0.065-0.009-0.13-0.013-0.194 c-0.091-1.274-0.198-2.54-0.314-3.802c-0.039-0.423-0.084-0.842-0.126-1.263c-0.083-0.833-0.168-1.665-0.262-2.493 c-0.058-0.509-0.12-1.016-0.181-1.523c-0.089-0.729-0.181-1.457-0.278-2.182c-0.074-0.55-0.149-1.099-0.227-1.646 c-0.096-0.669-0.197-1.335-0.3-2c-0.09-0.579-0.178-1.159-0.273-1.735c-0.099-0.601-0.206-1.198-0.311-1.795 c-0.453-2.577-0.957-5.123-1.514-7.634c-0.063-0.285-0.124-0.572-0.188-0.856c-0.19-0.837-0.389-1.669-0.59-2.498 c-0.068-0.281-0.135-0.561-0.205-0.841c-0.213-0.857-0.432-1.71-0.657-2.559c-0.056-0.213-0.114-0.426-0.171-0.639 c-0.246-0.915-0.497-1.826-0.757-2.731c-0.014-0.05-0.029-0.1-0.044-0.149c-1.473-5.112-3.161-10.057-5.045-14.809l-4.492,3.585 l-23.496-1.345c-0.93-0.053-1.846,0.239-2.574,0.82l-11.078,8.842c6.503,14.901,11.045,31.877,12.936,50.178l13.501-10.776 c0.728-0.581,1.644-0.873,2.574-0.819l23.496,1.345L192.982,117.096z"/> </g><path style="fill:#2D5872;" d="M73.988,48.398l17.046-13.606c0.797-0.636,1.802-0.956,2.82-0.898l21.775,1.247 c1.019,0.058,2.023-0.261,2.82-0.898l17.046-13.606c0.797-0.636,1.802-0.956,2.82-0.898l13.775,0.789 C122.524-7.501,82.29-9.963,49.269,32.97c-5.888,7.656-10.467,16.04-13.936,24.951l11.243-8.975c0.797-0.637,1.802-0.956,2.82-0.898 l21.772,1.248C72.187,49.355,73.191,49.035,73.988,48.398z"/><g> <path style="fill:#1D4859;" d="M115.63,35.142c1.019,0.058,2.023-0.261,2.82-0.898l17.046-13.606 c0.797-0.636,1.802-0.956,2.82-0.898l13.768,0.788c-0.056-0.053-0.11-0.108-0.166-0.16c-0.244-0.23-0.49-0.457-0.736-0.684 c-0.454-0.419-0.909-0.832-1.368-1.238c-0.215-0.191-0.429-0.383-0.645-0.571c-0.565-0.492-1.135-0.973-1.707-1.447 c-0.222-0.184-0.444-0.366-0.667-0.547c-0.621-0.504-1.245-1.001-1.874-1.483c-0.141-0.108-0.284-0.212-0.425-0.319 c-0.566-0.428-1.135-0.848-1.707-1.258c-0.169-0.121-0.337-0.244-0.506-0.363c-0.672-0.475-1.348-0.937-2.029-1.387 c-0.141-0.093-0.283-0.184-0.425-0.276c-0.673-0.438-1.348-0.867-2.028-1.28c-0.051-0.031-0.101-0.063-0.151-0.094 c-0.741-0.448-1.487-0.879-2.237-1.297c-0.108-0.06-0.216-0.12-0.324-0.18c-1.558-0.859-3.132-1.654-4.722-2.38 c-0.036-0.016-0.072-0.033-0.108-0.05c-20.833-9.467-44.201-7.301-65.812,11.25c16.072-0.501,31.721,6.121,45.317,18.042 L115.63,35.142z"/> <path style="fill:#1D4859;" d="M431.161,363.558c1.519,0.457,3.148-0.226,3.88-1.633c11.019-21.191,88.214-176.424,27.691-255.116 c-57.487-74.744-136.849-11.933-143.699,83.921c-4.208,58.886,2.374,125.316,3.74,138.074c0.141,1.321,1.059,2.428,2.331,2.811 L431.161,363.558z"/> <path style="fill:#1D4859;" d="M326.215,509.222L326.215,509.222c30.464,9.761,63.073-7.023,72.833-37.487l19.499-60.86 c0.556-1.737-0.4-3.596-2.137-4.152l-104.031-33.331c-1.737-0.556-3.596,0.4-4.152,2.137l-19.499,60.86 C278.967,466.853,295.751,499.462,326.215,509.222z"/> </g><path style="fill:#183D4C;" d="M416.41,406.723l-35.245-11.292c0.003,0.342-0.033,0.688-0.143,1.031l-19.499,60.86 c-7.955,24.829-31.089,40.566-55.868,40.255c5.806,5.106,12.726,9.135,20.56,11.645l0,0c30.464,9.761,63.073-7.023,72.833-37.487 l19.499-60.86C419.104,409.139,418.147,407.28,416.41,406.723z"/><path style="fill:#2D5872;" d="M296.884,410.931l1.439,1.149l22.293-1.277c1.703-0.098,3.383,0.437,4.716,1.501l15.381,12.277 c1.334,1.064,3.013,1.599,4.717,1.501l19.644-1.126c1.704-0.098,3.383,0.437,4.717,1.502l15.377,12.275 c1.334,1.065,3.013,1.599,4.717,1.502l19.614-1.125l-10.453,32.624c-0.843,2.632-1.868,5.154-3.036,7.573l-18.91,1.085 c-1.704,0.098-3.384-0.437-4.717-1.502l-15.377-12.275c-1.334-1.065-3.013-1.599-4.717-1.502l-19.644,1.126 c-1.703,0.098-3.383-0.437-4.717-1.501l-15.381-12.277c-1.333-1.064-3.013-1.599-4.716-1.501l-21.835,1.25 c0.17-5.253,1.046-10.569,2.73-15.822L296.884,410.931z"/><path style="fill:#1D4859;" d="M389.887,440.236c-1.704,0.098-3.383-0.437-4.717-1.502l-14.088-11.245l-9.559,29.834 c-1.086,3.391-2.465,6.605-4.083,9.639l14.945,11.93c1.334,1.064,3.013,1.599,4.717,1.502l18.91-1.085 c0.469-0.97,0.907-1.962,1.327-2.966c0.169-0.407,0.338-0.814,0.499-1.227c0.127-0.325,0.252-0.651,0.374-0.979 c0.291-0.79,0.575-1.585,0.834-2.395c0.001-0.002,0.001-0.004,0.002-0.006l7.892-24.632l2.561-7.993L389.887,440.236z"/><path style="fill:#2D5872;" d="M350.143,253.722l22.075-1.264c0.922-0.053,1.831,0.237,2.553,0.813l17.281,13.793 c0.722,0.576,1.631,0.865,2.553,0.813l22.072-1.265c0.922-0.053,1.831,0.237,2.553,0.813l17.278,13.792 c0.722,0.576,1.631,0.866,2.553,0.813l22.069-1.266c0.922-0.053,1.831,0.237,2.553,0.813l3.668,2.927 c-5.769,17.581-12.09,33.488-17.677,46.394l-1.349-1.077c-0.722-0.576-1.631-0.866-2.553-0.813l-22.069,1.266 c-0.922,0.053-1.831-0.237-2.553-0.813l-17.278-13.792c-0.722-0.576-1.631-0.866-2.553-0.813l-22.072,1.265 c-0.922,0.053-1.831-0.237-2.553-0.813l-17.281-13.793c-0.722-0.576-1.631-0.865-2.553-0.813l-22.075,1.264 c-0.922,0.053-1.831-0.237-2.553-0.813l-12.615-10.069c-0.967-15.035-1.8-33.141-1.948-52.204l10.088-0.577 c0.922-0.053,1.831,0.237,2.552,0.813l17.281,13.793C348.313,253.485,349.221,253.775,350.143,253.722z"/><path style="fill:#183D4C;" d="M462.731,106.809c-26.134-33.98-56.788-39.525-83.096-26.466 c12.389,4.817,24.654,14.213,36.057,29.04c53.645,69.75-0.899,199.616-21.664,242.992l37.132,11.184 c1.519,0.457,3.148-0.226,3.879-1.633C446.059,340.734,523.255,185.501,462.731,106.809z"/><path style="fill:#1D4859;" d="M463.683,281.576c-0.722-0.576-1.631-0.865-2.553-0.813l-22.069,1.266 c-0.922,0.053-1.831-0.237-2.553-0.813l-11.532-9.205c-5.04,17.307-10.881,33.463-16.463,47.363l12.636,10.086 c0.722,0.576,1.631,0.866,2.553,0.813l22.069-1.266c0.922-0.053,1.831,0.237,2.553,0.813l1.349,1.077 c0.417-0.964,0.84-1.949,1.265-2.946c0.116-0.272,0.233-0.548,0.349-0.823c0.334-0.787,0.67-1.583,1.008-2.39 c0.122-0.29,0.243-0.578,0.365-0.871c0.443-1.062,0.888-2.135,1.336-3.229c0.024-0.058,0.048-0.118,0.072-0.176 c0.424-1.035,0.85-2.087,1.278-3.149c0.127-0.316,0.255-0.634,0.382-0.952c0.345-0.862,0.692-1.734,1.039-2.614 c0.123-0.312,0.246-0.621,0.369-0.935c0.453-1.153,0.906-2.317,1.36-3.497c0.066-0.172,0.133-0.348,0.199-0.521 c0.39-1.017,0.781-2.045,1.172-3.081c0.138-0.367,0.277-0.736,0.415-1.105c0.348-0.93,0.696-1.868,1.044-2.812 c0.118-0.32,0.236-0.638,0.354-0.96c0.45-1.231,0.9-2.473,1.348-3.728c0.095-0.265,0.189-0.534,0.284-0.801 c0.361-1.015,0.721-2.037,1.08-3.067c0.139-0.4,0.279-0.801,0.418-1.203c0.351-1.015,0.701-2.038,1.049-3.066 c0.102-0.302,0.206-0.602,0.308-0.906c0.397-1.179,0.79-2.368,1.182-3.563L463.683,281.576z"/><path style="fill:#2D5872;" d="M361.037,142.635l17.262,13.778c0.728,0.581,1.644,0.873,2.574,0.82l22.051-1.263 c0.93-0.053,1.846,0.239,2.574,0.82l17.262,13.778c0.728,0.581,1.645,0.873,2.574,0.82l22.048-1.263 c0.93-0.053,1.847,0.239,2.574,0.82l17.259,13.777c0.728,0.581,1.645,0.873,2.575,0.82l15.864-0.91 c0.038,16.441-1.932,33.341-5.125,49.89l-1.897-1.514c-0.458-0.366-1.036-0.55-1.622-0.516l-22.579,1.295 c-0.93,0.053-1.847-0.239-2.575-0.82l-17.259-13.777c-0.728-0.581-1.645-0.873-2.574-0.82l-22.048,1.263 c-0.93,0.053-1.846-0.239-2.574-0.819l-17.262-13.778c-0.728-0.581-1.644-0.873-2.574-0.82l-22.051,1.263 c-0.93,0.053-1.846-0.239-2.574-0.82l-17.262-13.778c-0.728-0.581-1.644-0.873-2.574-0.82l-23.496,1.345l-0.59-0.471 c0.005-0.068,0.009-0.137,0.014-0.205c1.325-18.543,5.374-35.841,11.443-51.154l4.492,3.585l23.496-1.345 C359.392,141.762,360.309,142.054,361.037,142.635z"/><path style="fill:#1D4859;" d="M485.644,184.63l-15.853,0.909c-0.93,0.053-1.847-0.239-2.575-0.82l-17.259-13.777 c-0.728-0.581-1.645-0.873-2.574-0.82l-9.524,0.546c1.501,16.141,0.688,33.026-1.621,49.827l15.619,12.468 c0.728,0.581,1.645,0.873,2.575,0.82l22.579-1.295c0.586-0.034,1.163,0.15,1.622,0.516l1.891,1.509 c0.051-0.265,0.101-0.529,0.152-0.794c0.29-1.522,0.569-3.046,0.837-4.573c0.081-0.459,0.163-0.918,0.241-1.378 c0.306-1.784,0.597-3.571,0.871-5.36c0.022-0.145,0.047-0.29,0.069-0.435c0.304-2.003,0.586-4.008,0.847-6.015 c0.032-0.244,0.059-0.488,0.09-0.732c0.216-1.689,0.415-3.378,0.598-5.067c0.053-0.486,0.102-0.973,0.152-1.459 c0.156-1.514,0.298-3.027,0.427-4.54c0.04-0.467,0.081-0.935,0.118-1.402c0.145-1.826,0.272-3.65,0.374-5.471 c0.006-0.102,0.014-0.204,0.02-0.306c0.109-1.992,0.191-3.981,0.247-5.965c0.008-0.285,0.01-0.569,0.017-0.853 c0.04-1.63,0.06-3.257,0.062-4.879C485.647,185.067,485.644,184.849,485.644,184.63z"/><path style="fill:#2D5872;" d="M438.012,122.237l-17.046-13.606c-0.797-0.636-1.802-0.956-2.82-0.898l-21.775,1.247 c-1.019,0.058-2.023-0.261-2.82-0.898l-17.046-13.606c-0.797-0.636-1.802-0.956-2.82-0.898l-13.775,0.789 c29.568-28.03,69.802-30.492,102.823,12.441c5.888,7.656,10.467,16.04,13.936,24.951l-11.243-8.975 c-0.797-0.637-1.802-0.956-2.82-0.898l-21.772,1.248C439.813,123.193,438.809,122.873,438.012,122.237z"/><path style="fill:#1D4859;" d="M414.551,107.939l3.594-0.206c1.019-0.058,2.023,0.261,2.82,0.898l17.046,13.606 c0.797,0.636,1.802,0.956,2.82,0.898l21.772-1.248c1.019-0.058,2.023,0.261,2.82,0.898l11.228,8.963 c-0.042-0.108-0.08-0.218-0.123-0.326c-0.241-0.613-0.494-1.22-0.746-1.828c-0.281-0.678-0.566-1.353-0.86-2.024 c-0.26-0.593-0.522-1.185-0.793-1.773c-0.343-0.745-0.699-1.484-1.059-2.221c-0.239-0.49-0.471-0.983-0.718-1.469 c-0.594-1.169-1.211-2.326-1.851-3.471c-0.218-0.391-0.45-0.774-0.673-1.162c-0.479-0.831-0.967-1.659-1.471-2.477 c-0.264-0.429-0.535-0.856-0.806-1.282c-0.517-0.81-1.047-1.613-1.589-2.41c-0.251-0.368-0.497-0.739-0.753-1.104 c-0.802-1.144-1.623-2.278-2.48-3.393c-0.73-0.949-1.465-1.869-2.202-2.774c-0.159-0.195-0.318-0.391-0.477-0.584 c-0.723-0.877-1.449-1.737-2.178-2.572c-0.11-0.125-0.22-0.246-0.329-0.371c-0.666-0.757-1.336-1.495-2.007-2.218 c-0.137-0.148-0.274-0.298-0.412-0.445c-0.734-0.781-1.471-1.541-2.21-2.281c-0.154-0.154-0.308-0.304-0.461-0.456 c-0.702-0.694-1.406-1.373-2.112-2.03c-0.07-0.065-0.139-0.133-0.209-0.198c-0.754-0.698-1.51-1.369-2.269-2.026 c-0.17-0.147-0.34-0.293-0.51-0.438c-0.759-0.647-1.519-1.28-2.282-1.888c-0.069-0.055-0.138-0.106-0.206-0.161 c-0.717-0.567-1.436-1.114-2.157-1.646c-0.16-0.118-0.32-0.238-0.48-0.355c-0.758-0.551-1.517-1.084-2.278-1.597 c-0.144-0.097-0.289-0.191-0.433-0.287c-0.694-0.461-1.389-0.907-2.085-1.336c-0.121-0.074-0.241-0.152-0.362-0.225 c-0.765-0.466-1.531-0.909-2.299-1.338c-0.176-0.098-0.352-0.194-0.529-0.291c-0.773-0.423-1.548-0.833-2.323-1.219 c-0.012-0.006-0.024-0.012-0.035-0.018c-0.783-0.388-1.567-0.751-2.352-1.102c-0.181-0.081-0.361-0.162-0.542-0.24 c-0.768-0.335-1.537-0.655-2.306-0.954c-0.127-0.049-0.253-0.094-0.38-0.143c-0.692-0.264-1.385-0.513-2.078-0.748 c-0.16-0.055-0.32-0.111-0.48-0.164c-0.763-0.252-1.526-0.486-2.289-0.704c-0.179-0.051-0.359-0.099-0.538-0.149 c-0.7-0.193-1.4-0.373-2.1-0.537c-0.104-0.025-0.209-0.052-0.313-0.076c-0.765-0.175-1.529-0.328-2.293-0.47 c-0.2-0.037-0.399-0.073-0.599-0.107c-0.762-0.132-1.523-0.253-2.284-0.353c-0.108-0.014-0.215-0.024-0.323-0.038 c-0.685-0.086-1.369-0.156-2.053-0.216c-0.199-0.017-0.397-0.036-0.596-0.051c-0.742-0.056-1.483-0.099-2.223-0.124 c-0.188-0.007-0.376-0.009-0.564-0.013c-0.635-0.016-1.268-0.021-1.902-0.014c-0.174,0.002-0.349,0-0.522,0.004 c-0.73,0.014-1.458,0.046-2.185,0.089c-0.224,0.013-0.447,0.029-0.671,0.045c-0.665,0.048-1.33,0.105-1.993,0.177 c-0.158,0.017-0.316,0.034-0.474,0.053c-0.669,0.078-1.337,0.171-2.004,0.273c-0.237,0.036-0.474,0.073-0.711,0.112 c-0.702,0.117-1.403,0.243-2.102,0.386c-0.204,0.042-0.408,0.089-0.612,0.134c-0.562,0.121-1.123,0.251-1.682,0.389 c-0.236,0.058-0.471,0.114-0.706,0.175c-0.677,0.176-1.351,0.365-2.024,0.565c-0.254,0.075-0.507,0.155-0.76,0.234 c-0.532,0.166-1.063,0.339-1.592,0.52c-0.227,0.078-0.454,0.151-0.681,0.232c-0.642,0.228-1.281,0.47-1.919,0.719 c-0.279,0.109-0.558,0.221-0.837,0.334c-0.57,0.232-1.138,0.472-1.705,0.721c-0.306,0.135-0.612,0.275-0.917,0.415 c-0.473,0.216-0.944,0.439-1.414,0.667c-0.169,0.082-0.338,0.165-0.507,0.249C391.62,85.005,403.475,93.956,414.551,107.939z"/></symbol><symbol id="down-arrow" viewBox="0 0 491.996 491.996"><title>down-arrow</title><path d="M484.132,124.986l-16.116-16.228c-5.072-5.068-11.82-7.86-19.032-7.86c-7.208,0-13.964,2.792-19.036,7.86l-183.84,183.848 L62.056,108.554c-5.064-5.068-11.82-7.856-19.028-7.856s-13.968,2.788-19.036,7.856l-16.12,16.128 c-10.496,10.488-10.496,27.572,0,38.06l219.136,219.924c5.064,5.064,11.812,8.632,19.084,8.632h0.084 c7.212,0,13.96-3.572,19.024-8.632l218.932-219.328c5.072-5.064,7.856-12.016,7.864-19.224 C491.996,136.902,489.204,130.046,484.132,124.986z"/></symbol><symbol id="one" viewBox="0 0 512 512"><title>one</title><polygon style="fill:#54BBFF;" points="474.5,7.5 256,256 474.5,504.5 504.5,504.5 504.5,7.5 "/><rect x="7.5" y="7.5" style="fill:#8DD2FF;" width="467" height="497"/><polygon style="fill:#C6E8FF;" points="444.5,37.5 256,256 444.5,474.5 474.5,474.5 474.5,37.5 "/><rect x="37.5" y="37.5" style="fill:#DEF1FF;" width="407" height="437"/><path style="fill:#54BBFF;" d="M272.37,121.543c-2.094-0.703-4.241-1.043-6.367-1.043c-6.143,0-12.091,2.837-15.944,7.924 l-49.999,66c-6.67,8.805-4.94,21.349,3.865,28.019c3.613,2.737,7.854,4.06,12.062,4.059c6.047,0,12.024-2.732,15.957-7.924 L246,200.022V371.5c0,11.046,8.954,20,20,20c11.046,0,20-8.954,20-20V140.501C286,131.911,280.514,124.279,272.37,121.543z"/><path d="M504.5,0H7.5C3.358,0,0,3.358,0,7.5v497c0,4.142,3.358,7.5,7.5,7.5h497c4.142,0,7.5-3.358,7.5-7.5V7.5 C512,3.358,508.642,0,504.5,0z M497,497H15V15h482V497z"/><path d="M37.5,482h437c4.142,0,7.5-3.358,7.5-7.5v-437c0-4.142-3.358-7.5-7.5-7.5h-437c-4.142,0-7.5,3.358-7.5,7.5v45 c0,4.142,3.358,7.5,7.5,7.5s7.5-3.358,7.5-7.5V45h422v422H45V112.5c0-4.142-3.358-7.5-7.5-7.5s-7.5,3.358-7.5,7.5v362 C30,478.642,33.358,482,37.5,482z"/><path d="M266,399c15.164,0,27.5-12.336,27.5-27.5V140.501c0-11.825-7.531-22.301-18.742-26.068 c-2.832-0.951-5.777-1.433-8.755-1.433c-8.56,0-16.755,4.073-21.922,10.896l-50,66c-9.156,12.087-6.772,29.37,5.314,38.526 c4.82,3.651,10.556,5.581,16.588,5.581c8.698,0,16.693-3.972,21.938-10.895l0.579-0.764V371.5C238.5,386.664,250.836,399,266,399z M225.965,214.049c-2.384,3.147-6.022,4.953-9.98,4.953c-2.736,0-5.34-0.877-7.532-2.537c-5.494-4.162-6.578-12.018-2.416-17.512 l50-66c2.349-3.101,6.075-4.953,9.966-4.953c1.351,0,2.69,0.22,3.979,0.652c5.095,1.712,8.519,6.474,8.519,11.849V371.5 c0,6.893-5.607,12.5-12.5,12.5s-12.5-5.607-12.5-12.5V200.022c0-3.222-2.058-6.083-5.111-7.109c-0.785-0.264-1.59-0.391-2.388-0.391 c-2.303,0-4.534,1.064-5.979,2.972L225.965,214.049z"/></symbol><symbol id="two" viewBox="0 0 512 512"><title>two</title><polygon style="fill:#54BBFF;" points="474.5,7.5 256,256 474.5,504.5 504.5,504.5 504.5,7.5 "/><rect x="7.5" y="7.5" style="fill:#8DD2FF;" width="467" height="497"/><polygon style="fill:#C6E8FF;" points="444.5,37.5 256,256 444.5,474.5 474.5,474.5 474.5,37.5 "/><rect x="37.5" y="37.5" style="fill:#DEF1FF;" width="407" height="437"/><path style="fill:#54BBFF;" d="M305.5,391.5h-99c-7.177,0-13.804-3.846-17.365-10.077s-3.51-13.893,0.134-20.076l92.162-156.403 c2.663-4.517,4.069-9.683,4.069-14.943c0-16.266-13.234-29.5-29.5-29.5s-29.5,13.234-29.5,29.5c0,11.046-8.954,20-20,20 s-20-8.954-20-20c0-38.322,31.178-69.5,69.5-69.5s69.5,31.178,69.5,69.5c0,12.4-3.323,24.59-9.609,35.253L241.499,351.5H305.5 c11.046,0,20,8.954,20,20S316.546,391.5,305.5,391.5z"/><path d="M504.5,0H7.5C3.358,0,0,3.358,0,7.5v497c0,4.142,3.358,7.5,7.5,7.5h497c4.142,0,7.5-3.358,7.5-7.5V7.5 C512,3.358,508.642,0,504.5,0z M497,497H15V15h482V497z"/><path d="M37.5,482h437c4.142,0,7.5-3.358,7.5-7.5v-437c0-4.142-3.358-7.5-7.5-7.5h-437c-4.142,0-7.5,3.358-7.5,7.5v45 c0,4.142,3.358,7.5,7.5,7.5s7.5-3.358,7.5-7.5V45h422v422H45V112.5c0-4.142-3.358-7.5-7.5-7.5s-7.5,3.358-7.5,7.5v362 C30,478.642,33.358,482,37.5,482z"/><path d="M333,190c0-42.458-34.542-77-77-77s-77,34.542-77,77c0,15.164,12.336,27.5,27.5,27.5S234,205.164,234,190 c0-12.131,9.869-22,22-22c12.131,0,22,9.869,22,22c0,3.922-1.048,7.772-3.03,11.136l-92.162,156.403 c-4.998,8.481-5.068,19.059-0.184,27.605C187.507,393.691,196.656,399,206.5,399h99c15.164,0,27.5-12.336,27.5-27.5 S320.664,344,305.5,344h-50.876l67.729-114.938C329.318,217.246,333,203.738,333,190z M309.43,221.446l-74.392,126.247 c-1.367,2.319-1.386,5.192-0.05,7.529s3.82,3.779,6.512,3.779h64c6.893,0,12.5,5.607,12.5,12.5s-5.607,12.5-12.5,12.5h-99 c-4.474,0-8.633-2.414-10.853-6.298c-2.22-3.885-2.188-8.692,0.083-12.547l92.162-156.402C291.234,203.083,293,196.599,293,190 c0-20.402-16.598-37-37-37s-37,16.598-37,37c0,6.893-5.607,12.5-12.5,12.5S194,196.893,194,190c0-34.187,27.813-62,62-62 s62,27.813,62,62C318,201.061,315.037,211.935,309.43,221.446z"/></symbol></svg>